<svg width="90" height="90" viewBox="0 0 90 90" fill="none" xmlns="http://www.w3.org/2000/svg">
<rect width="90" height="90" rx="25" fill="#F94020"/>
<path fill-rule="evenodd" clip-rule="evenodd" d="M68.9298 21.3643C64.4441 16.8786 57.1712 16.8786 52.6855 21.3643L44.9753 29.0745L37.6086 21.7078C33.1229 17.2221 25.8501 17.2221 21.3643 21.7078C16.8786 26.1936 16.8786 33.4664 21.3643 37.9521L28.731 45.3188L22.0018 52.048C17.5161 56.5338 17.516 63.8066 22.0018 68.2923C26.4875 72.7781 33.7604 72.7781 38.2461 68.2923L44.9753 61.5631L52.048 68.6358C56.5338 73.1216 63.8066 73.1216 68.2923 68.6358C72.7781 64.1501 72.7781 56.8773 68.2923 52.3915L61.2196 45.3188L68.9298 37.6086C73.4156 33.1229 73.4156 25.8501 68.9298 21.3643Z" fill="white"/>
</svg>
